<svg width="1190" height="189" viewBox="0 0 1190 189" fill="none" xmlns="http://www.w3.org/2000/svg">
<g clip-path="url(#clip0_2_3)">
<path d="M43.3 76.9H43.1L24.6 74.8C24.3333 74.8 24.1 74.7 23.9 74.5C23.7 74.3 23.5 74.1 23.3 73.8C23.1667 73.5333 23.0667 73.2333 23 72.9C23 72.5667 23 72.2 23 71.8L25.1 57.9C25.1 57.6 25.3 57.2 25.4 56.8C25.6 56.3333 25.8333 55.9 26.1 55.5C26.3667 55.0333 26.6667 54.6 27 54.2C27.3333 53.7333 27.7 53.3333 28.1 53L42.1 39.9C42.5 39.5 42.9333 39.1667 43.4 38.9C43.8 38.5 44.3 38.3 44.7 38C45.2 37.8 45.6 37.5 46 37.4C46.4 37.2 46.8 37.1 47.1 37.1L66.8 35.3H67C67.2667 35.3 67.5333 35.3333 67.8 35.4C68.1333 35.4667 68.4333 35.6333 68.7 35.9C68.9 36.1 69.1 36.3 69.3 36.6C69.4333 36.9333 69.5 37.3 69.5 37.7L70 52.5C70 52.9 69.9333 53.3667 69.8 53.9C69.6 54.4333 69.3333 55 69 55.6C68.7 56.1 68.4 56.7 68 57.2C67.5333 57.7333 67.0667 58.2 66.6 58.6L48.9 74.3C48.4333 74.7 47.9333 75.0667 47.4 75.4C46.8667 75.7333 46.3333 76.0333 45.8 76.3C45.3 76.5 44.8 76.7 44.3 76.8C43.9667 76.8667 43.6333 76.9 43.3 76.9Z" fill="black"/>
<path d="M178.8 92.3C178.4 92.3 178 92.2667 177.6 92.2L127.5 86.5C126.7 86.4 126.1 86.2 125.4 85.9C124.733 85.5667 124.1 85.1667 123.5 84.7C123 84.2 122.5 83.7 122.1 83.1C121.767 82.5667 121.533 81.9667 121.4 81.3L116.7 59.4C116.5 58.9 116.6 58.3 116.7 57.6C116.833 56.9333 117.067 56.2667 117.4 55.6C117.7 54.9 118.1 54.2 118.6 53.6C119.133 52.9333 119.7 52.3333 120.3 51.8L144.4 31.6C145 31 145.8 30.5 146.7 30C147.5 29.5 148.4 29 149.3 28.6C150.2 28.2 151.1 27.9 151.9 27.6C152.767 27.3333 153.6 27.1667 154.4 27.1L204.4 22.4C204.8 22.4 205.2 22.4 205.6 22.4C206.2 22.4 206.8 22.4333 207.4 22.5C208.467 22.6333 209.467 22.8667 210.4 23.2C211.3 23.5 212.2 23.9 212.9 24.3C213.633 24.7667 214.2 25.3 214.6 25.9L231.6 50.4C232.067 51.1333 232.333 51.9667 232.4 52.9C232.5 53.8 232.4 54.8 232 55.8C231.7 56.7 231.2 57.7 230.5 58.6C229.9 59.5 229 60.4 228 61.1L191.6 88.1C190.7 88.8 189.6 89.4 188.4 90C187.3 90.5 186 91 184.7 91.3C183.433 91.7 182.167 91.9667 180.9 92.1C180.167 92.2333 179.467 92.3 178.8 92.3Z" fill="black"/>
<path d="M77.8 52.7C77.3333 52.7 76.9 52.6 76.5 52.4C76.1 52.3 75.8 52 75.5 51.8C75.2 51.5 75 51.2 74.8 50.8C74.6 50.4667 74.5 50.0667 74.5 49.6L73.7 34.7C73.7 34.3 73.8 33.8 73.9 33.4C74.0333 32.8667 74.2666 32.3667 74.6 31.9C74.8666 31.3667 75.2 30.8667 75.6 30.4C76 29.8667 76.4 29.4 76.8 29L94.4 13C94.9333 12.6 95.4666 12.2 96 11.8C96.6 11.4 97.2 11.0333 97.8 10.7C98.4 10.3667 99 10.0667 99.6 9.8C100.2 9.6 100.733 9.43334 101.2 9.3L131.4 3.9C131.8 3.83334 132.2 3.8 132.6 3.8H133.1C133.7 3.8 134.2 3.9 134.7 4.1C135.167 4.3 135.567 4.53334 135.9 4.8C136.3 5.13334 136.567 5.5 136.7 5.9L142.5 21.6C142.7 22.1 142.7 22.6 142.6 23.2C142.533 23.8 142.333 24.4333 142 25.1C141.7 25.7 141.3 26.4 140.8 27C140.267 27.6667 139.7 28.2667 139.1 28.8L115.6 48.7C115 49.2 114.3 49.7 113.6 50.2C112.867 50.6 112.1 51 111.3 51.4C110.5 51.7333 109.733 52 109 52.2C108.333 52.3333 107.7 52.4333 107.1 52.5L77.8 52.7Z" fill="black"/>
<path d="M177.3 101.6C178.3 102 179.3 102.6 180.2 103.3C181.1 103.9 181.9 104.7 182.6 105.5C183.4 106.3 183.9 107.2 184.2 108.1L199.6 146.1C200.1 147.3 200.3 148.5 200.3 149.8C200.3 151 200.1 152.3 199.6 153.6C199.2 154.867 198.6 156.033 197.8 157.1C197.1 158.2 196.1 159.1 195 159.8L155.4 186.2C154.4 186.8 153.2 187.4 152 187.8C150.8 188.2 149.4 188.4 148.1 188.6C146.8 188.7 145.4 188.7 144.2 188.5C143 188.3 141.8 188 140.8 187.6L91.9 165.1C91.2 164.8 90.5 164.3 89.9 163.7C89.3 163.1 88.7333 162.4 88.2 161.6C87.7333 160.8 87.3666 159.967 87.1 159.1C86.7666 158.167 86.5666 157.267 86.5 156.4L84.4 126C84.4 125.3 84.4 124.5 84.6 123.7C84.8 122.9 85.1 122.1 85.5 121.3C85.9 120.5 86.4 119.7 86.9 119C87.5 118.3 88.1 117.6 88.7 117.1L114.1 96.9C114.8 96.4 115.6 95.9 116.5 95.4C117.3 95 118.167 94.6333 119.1 94.3C120.033 94.0333 120.933 93.8333 121.8 93.7C122.7 93.6 123.5 93.6 124.2 93.7L174.3 100.7C175.3 100.9 176.3 101.2 177.3 101.6Z" fill="black"/>
<path d="M42 190.1C41.6 190.1 41.2 190.067 40.8 190C40.1 189.9 39.5 189.7 39 189.3L14.2 171.5C13.8667 171.233 13.5667 170.867 13.3 170.4C13.0333 169.867 12.8 169.3 12.6 168.7C12.4 168 12.3 167.3 12.3 166.6C12.2333 165.933 12.2667 165.233 12.4 164.5L15.8 139.5C15.9333 138.9 16.1 138.267 16.3 137.6C16.6 136.9 16.9 136.2 17.3 135.6C17.6333 134.933 18.0333 134.3 18.5 133.7C19 133.1 19.4 132.6 19.9 132.2L38.6 116.4C39.1333 115.933 39.7 115.533 40.3 115.2C40.9 114.9 41.5 114.7 42.1 114.5C42.7 114.3 43.2 114.1 43.8 114.1L44.4 114C44.6667 114 44.9333 114.033 45.2 114.1L72.5 122.5C73.0333 122.7 73.5333 122.967 74 123.3C74.4667 123.7 74.9 124.2 75.3 124.8C75.7 125.4 76 126.033 76.2 126.7C76.4667 127.367 76.6 128.067 76.6 128.8L77.9 158.8C78 159.7 77.9 160.6 77.7 161.6C77.4333 162.533 77.1 163.467 76.7 164.4C76.2 165.4 75.7 166.3 75.1 167C74.5 167.8 73.8 168.5 73.1 169L47.3 188.4C46.6333 188.867 45.9333 189.233 45.2 189.5C44.5 189.8 43.7 190 42.9 190.1C42.6333 190.1 42.3333 190.1 42 190.1Z" fill="black"/>
<path d="M286.9 2.60001V185.9H284.9V2.60001" fill="black"/>
<path d="M14.3 129.3C13.9 129.3 13.6 129.267 13.4 129.2L-3.10002 121.6C-3.36669 121.467 -3.60002 121.267 -3.80002 121C-3.93336 120.667 -4.06669 120.333 -4.20002 120C-4.26669 119.6 -4.33336 119.167 -4.40002 118.7C-4.40002 118.233 -4.33336 117.767 -4.20002 117.3L-0.600024 100.2C-0.466691 99.7333 -0.300024 99.2667 -0.100024 98.8C0.0999758 98.3 0.399975 97.8 0.699975 97.3C1.03331 96.7667 1.36664 96.2667 1.69998 95.8C1.99998 95.4 2.39998 95 2.79998 94.6L17.2 81.5C17.6 81.1667 18.0333 80.8333 18.5 80.5C18.9 80.2333 19.3333 80 19.8 79.8C20.2 79.6 20.6 79.4334 21 79.3C21.2666 79.2334 21.5333 79.2 21.8 79.2H22L40.3 81.8C40.6 81.9 41 82 41.2 82.2C41.5333 82.4 41.8 82.6667 42 83C42.2 83.4 42.4 83.8 42.5 84.2C42.5666 84.6 42.6 85.0667 42.6 85.6L41.2 104.7C41.2 105.233 41.0666 105.833 40.8 106.5C40.6 107.1 40.3333 107.733 40 108.4C39.6 109.067 39.2 109.667 38.8 110.2C38.3333 110.8 37.8666 111.3 37.4 111.7L19.1 127.3C18.6 127.7 18.1 128.1 17.6 128.4C17.0666 128.667 16.5333 128.9 16 129.1C15.4666 129.3 14.9666 129.367 14.5 129.3H14.3Z" fill="black"/>
<path fill-rule="evenodd" clip-rule="evenodd" d="M245.9 13C247.033 13.4667 248.033 14.1333 248.9 15C249.7 15.8 250.333 16.7667 250.8 17.9C251.267 19.0333 251.5 20.2333 251.5 21.5C251.5 22.8333 251.267 24.0667 250.8 25.2C250.333 26.2667 249.7 27.2333 248.9 28.1C248.033 28.9 247.033 29.5333 245.9 30C244.833 30.4667 243.633 30.7 242.3 30.7C240.967 30.7 239.767 30.4667 238.7 30C237.567 29.5333 236.567 28.9 235.7 28.1C234.9 27.2333 234.267 26.2667 233.8 25.2C233.333 24.0667 233.1 22.8333 233.1 21.5C233.1 20.2333 233.333 19.0333 233.8 17.9C234.267 16.7667 234.9 15.8 235.7 15C236.567 14.1333 237.567 13.4667 238.7 13C239.767 12.5333 240.967 12.3 242.3 12.3C243.567 12.3 244.767 12.5333 245.9 13ZM239.2 14.2C238.267 14.6667 237.433 15.2333 236.7 15.9C236.033 16.6333 235.5 17.4667 235.1 18.4C234.7 19.4 234.5 20.4333 234.5 21.5C234.5 22.6333 234.7 23.6667 235.1 24.6C235.5 25.6 236.033 26.4333 236.7 27.1C237.433 27.8333 238.267 28.4 239.2 28.8C240.133 29.2 241.167 29.4 242.3 29.4C243.433 29.4 244.467 29.2 245.4 28.8C246.333 28.4 247.167 27.8333 247.9 27.1C248.567 26.4333 249.1 25.6 249.5 24.6C249.9 23.6667 250.1 22.6333 250.1 21.5C250.1 20.4333 249.9 19.4 249.5 18.4C249.1 17.4667 248.567 16.6333 247.9 15.9C247.167 15.2333 246.333 14.6667 245.4 14.2C244.467 13.8 243.433 13.6 242.3 13.6C241.167 13.6 240.133 13.8 239.2 14.2ZM238.9 26.9V16.2H243C244.267 16.2 245.167 16.4667 245.7 17C246.233 17.4667 246.5 18.2 246.5 19.2C246.5 19.6 246.433 20 246.3 20.4C246.167 20.7333 245.967 21 245.7 21.2C245.433 21.4667 245.167 21.6667 244.9 21.8C244.567 21.9333 244.2 22.0333 243.8 22.1L247 26.9H245.5L242.5 22.1H240.3V26.9H238.9ZM243.1 21C243.5 20.9333 243.833 20.8667 244.1 20.8C244.433 20.6667 244.667 20.4667 244.8 20.2C245 19.9333 245.1 19.5667 245.1 19.1C245.1 18.7667 245.033 18.4667 244.9 18.2C244.767 18 244.567 17.8333 244.3 17.7C244.1 17.5 243.833 17.4 243.5 17.4C243.233 17.3333 242.933 17.3 242.6 17.3H240.2V21H241.9C242.3 21 242.7 21 243.1 21Z" fill="black"/>
<path fill-rule="evenodd" clip-rule="evenodd" d="M1183.7 87.5H1151.2C1150.4 87.5 1149.8 87.1 1149.8 86.3V42.2C1149.8 41.5 1150.4 41 1151.2 41H1183.6C1184.4 41 1185 41.5 1185 42.2V48.8C1185 49.5 1184.4 50 1183.6 50H1162.3V59.2H1182.7C1183.5 59.2 1184 59.7 1184 60.4V67C1184 67.7 1183.5 68.2 1182.7 68.2H1162.3V78.6H1183.7C1184.4 78.6 1185 79.1 1185 79.8V86.3C1185 87.1 1184.4 87.5 1183.7 87.5ZM1141.4 48.7C1141.4 49.5 1140.9 49.9 1140.1 49.9H1126V86.3C1126 87.1 1125.4 87.5 1124.7 87.5H1115C1114.3 87.5 1113.6 87.1 1113.6 86.3V49.9H1099.6C1098.7 49.9 1098.2 49.5 1098.2 48.7V42.1C1098.2 41.5 1098.7 41 1099.6 41H1140.1C1140.8 41 1141.4 41.5 1141.4 42.1V48.7ZM1088.4 87.5H1078.7C1078 87.5 1077.3 87.1 1077.3 86.3V42.9C1077.3 42.2 1077.9 41.9 1078.5 41.8L1088.5 40.2H1088.7C1089.4 40.2 1089.8 40.7 1089.8 41.3V86.3C1089.8 87.1 1089.2 87.5 1088.4 87.5ZM1042.8 88.4C1029.1 88.4 1021.3 83.5 1021.3 70.9V42.9C1021.3 42.2 1021.8 41.9 1022.5 41.8L1032.5 40.2H1032.7C1033.3 40.2 1033.7 40.7 1033.7 41.3V71.6C1033.7 76.8 1035.4 79.8 1042.8 79.8C1049.6 79.8 1051.8 77.2 1051.8 71.9V42.9C1051.8 42.2 1052.3 41.9 1053 41.8L1063 40.2H1063.2C1063.8 40.2 1064.2 40.7 1064.2 41.3V70.8C1064.2 82.9 1057.1 88.4 1042.8 88.4ZM986.4 88.5C975.3 88.5 966.5 85.9 965.1 85.4C964.2 85.1 963.7 84.3 963.7 83.6V83.2L964.8 77.1C965 76.1 965.6 75.8 966.2 75.8C966.5 75.8 966.7 75.9 967 75.9C968.8 76.3 977.2 78.7 984.6 78.7C991.1 78.7 996.4 77 996.4 70.7C996.4 64.2 990.6 63.7 983.1 62.5C974.5 61.2 963.1 58.7 963.1 44.5C963.1 29.9 973.6 26 986.7 26C996.3 26 1004.4 28.2 1006.3 28.8C1007.3 29 1007.9 29.7 1007.9 30.6V31L1006.7 37.1C1006.6 37.7 1006.1 38.3 1005.3 38.3L1005.1 38.2C1000.3 37.2 994.7 35.8 988.1 35.8C982.3 35.8 976.7 36.8 976.7 43.1C976.7 49.4 983.1 50.1 990.1 51.2C999.6 52.7 1010.3 54.4 1010.3 69.8C1010.3 84.1 998.8 88.4 986.4 88.5ZM926.1 87.5H893.6C892.9 87.5 892.2 87.1 892.2 86.3V42.2C892.2 41.5 892.9 41 893.6 41H926C926.9 41 927.4 41.5 927.4 42.2V48.8C927.4 49.5 926.9 50 926 50H904.7V59.2H925.1C925.9 59.2 926.4 59.7 926.4 60.4V67C926.4 67.7 925.9 68.2 925.1 68.2H904.7V78.6H926.1C926.8 78.6 927.4 79.1 927.4 79.8V86.3C927.4 87.1 926.8 87.5 926.1 87.5ZM881.4 84.2C881.4 84.7 881.2 85.2 880.1 85.6C875.6 87 870.2 87.9 864.3 87.9C847.4 87.9 841.3 80.7 841.3 64.1C841.3 47.6 847.4 40.4 864.3 40.4C870.2 40.4 875.6 41.3 880.1 42.7C881.2 43.1 881.4 43.6 881.4 44.2V44.7L880.2 50.3C880.1 50.9 879.6 51.2 879 51.2C878.7 51.2 878.6 51.2 878.3 51.1C874.9 50.3 871.2 49.3 866.3 49.3C856.2 49.3 853.9 53.3 853.9 64.2C853.9 74.9 856.2 79.1 866.3 79.1C871.2 79.1 874.9 78 878.3 77.2C878.6 77.1 878.7 77.1 879 77.1C879.6 77.1 880.1 77.5 880.2 78L881.4 83.6C881.4 83.8 881.4 83.9 881.4 84.2ZM827.9 87.5H810.1C809.2 87.5 808.3 86.8 808.1 86L795.4 50.2H792.8L793.7 86.3V86.4C793.7 87 793.2 87.5 792.4 87.5H782.8C782 87.5 781.4 87 781.4 86.3L781.6 42.2C781.6 41.5 782.1 41 782.9 41H801.9C802.7 41 803.7 41.4 804.1 42.4L817 80.5H818.2L817.5 42.2V42.1C817.5 41.5 818.1 41 818.8 41H828.3C829.1 41 829.7 41.5 829.7 42.2V85.9C829.7 86.9 828.8 87.5 827.9 87.5ZM772.5 86.7C772.5 87.1 772.1 87.6 771.5 87.6H760.8C760.3 87.6 759.6 87 759.4 86.4L754.9 71.8H738.6L734 86.6C733.8 87.1 733.3 87.5 732.7 87.5H722.4C721.7 87.5 721.2 87.1 721.2 86.6V86.3L736.6 41.7C736.7 41.3 737.2 41 737.7 41H756.1C756.5 41 757 41.3 757.2 41.7L772.4 86.3L772.5 86.7ZM748.1 49.4H745.5L741.1 63.4H752.5L748.1 49.4ZM713.9 86.2C713.9 87.1 713.2 87.5 712.4 87.5H703C702.2 87.5 701.5 87 701.4 86.1L699.6 49.5H696.9L689.7 78.1C689.5 78.8 689 79.5 688 79.5H676.7C675.8 79.5 675.3 78.8 675 78.1L667.9 49.5H665.2L663.3 86.1C663.3 87 662.6 87.5 661.8 87.5H652.9C652.1 87.5 651.4 87 651.4 86.2L654.9 42.4C655 41.6 655.7 41 656.5 41H675.3C676.2 41 676.8 41.7 677 42.4L682.7 67H683.4L688.6 42.4C688.8 41.7 689.5 41 690.4 41H708.2C709.1 41 709.7 41.6 709.8 42.4L713.9 86.2ZM638.5 87.5H628.3C627.6 87.5 627.1 87.1 627 86.5L626.4 75.1C626.2 71 621.9 70.4 617.7 70.2L610 70.1V86.3C610 87 609.3 87.5 608.6 87.5H598.9C598.1 87.5 597.5 87 597.5 86.3V42.2C597.5 41.5 598.1 41 598.9 41H621.8C632 41 638.9 44.1 638.9 54.3C638.9 60.9 636.2 64.3 627.9 65.2V67C635.3 67.4 638.9 69.1 639.3 77.8L639.7 86.3C639.7 86.8 639 87.5 638.5 87.5ZM619.4 49.5H610V62.5L618.3 62.1C623.5 61.9 626.1 60.6 626.1 55.9C626.1 51.4 624.6 49.5 619.4 49.5ZM562.2 88.4C542.7 88.4 538.4 78.7 538.4 64.2C538.4 49.9 542.7 40.2 562.2 40.2C581.7 40.2 585.9 49.9 585.9 64.2C585.9 78.7 581.7 88.4 562.2 88.4ZM562.2 48.6C552.4 48.6 551.1 53.2 551.1 64.2C551.1 75.3 552.4 79.8 562.1 79.8C572 79.8 573.2 75.3 573.2 64.2C573.2 53.2 572 48.6 562.2 48.6ZM529 50H509.2V61.9H527C527.7 61.9 528.3 62.4 528.3 63.1V69.7C528.3 70.4 527.7 70.9 527 70.9H509.2V86.3C509.2 87.1 508.5 87.6 507.8 87.6H498.1C497.4 87.6 496.7 87.1 496.7 86.3V42.2C496.7 41.5 497.4 41 498.1 41H529C529.8 41 530.4 41.5 530.4 42.2V48.8C530.4 49.5 529.8 50 529 50ZM483.3 87.5H473.1C472.3 87.5 471.8 87.1 471.8 86.5L471.2 75.1C471 71 466.7 70.4 462.5 70.2L454.8 70.1V86.3C454.8 87 454.1 87.5 453.4 87.5H443.7C442.8 87.5 442.3 87 442.3 86.3V42.2C442.3 41.5 442.9 41 443.7 41H466.6C476.8 41 483.6 44.1 483.6 54.3C483.6 60.9 480.9 64.3 472.7 65.2V67C480 67.4 483.7 69.1 484.1 77.8L484.5 86.3C484.5 86.8 483.8 87.5 483.3 87.5ZM464.2 49.5H454.8V62.5L463 62.1C468.3 61.9 470.8 60.6 470.8 55.9C470.8 51.4 469.4 49.5 464.2 49.5ZM428.9 87.6H396.4C395.7 87.6 395 87.1 395 86.3V42.2C395 41.5 395.7 41 396.4 41H428.8C429.6 41 430.2 41.5 430.2 42.2V48.8C430.2 49.5 429.6 50 428.8 50H407.5V59.2H427.9C428.7 59.2 429.2 59.7 429.2 60.4V67C429.2 67.7 428.7 68.2 427.9 68.2H407.5V78.6H428.9C429.6 78.6 430.2 79.1 430.2 79.8V86.3C430.2 87.1 429.6 87.5 428.9 87.6ZM381.4 59.7C377.7 63.6 371.3 64.6 364.4 64.6H363.8H349.4V86.3C349.4 87.1 348.9 87.5 348.1 87.5H337.2C336.5 87.5 335.9 87.1 335.9 86.3V28.2C335.9 27.5 336.6 26.9 337.3 26.9H366.5C373.2 26.9 378.3 28.2 381.6 31.6C384.6 34.6 386 39.2 386 45.5C386 51.4 384.7 56.3 381.4 59.7ZM369.7 38.4C367.7 36.5 364.3 36.2 359.9 36.2H349.4V56L359.6 55.7C364.5 55.5 367.8 55.1 369.8 53.2C371.3 51.8 371.9 49.4 371.9 45.6C371.9 42 371.2 39.7 369.7 38.4Z" fill="black"/>
<path d="M359.342 135.51H350.861V163.193H344.617V135.51H335.9V130.563H360.049L359.342 135.51Z" fill="black"/>
<path d="M385.729 145.052V163.075H379.604V145.994C379.604 142.932 378.426 141.989 376.541 141.989C374.42 141.989 372.771 143.521 371.358 145.759V163.193H365.35V128.325L371.358 127.618V141.165C373.242 138.809 375.598 137.513 378.661 137.513C383.02 137.513 385.729 140.34 385.729 145.052Z" fill="black"/>
<path fill-rule="evenodd" clip-rule="evenodd" d="M414.472 152.591H398.805C399.158 157.657 401.632 159.306 404.93 159.306C407.169 159.306 408.936 158.599 411.174 157.068L413.648 160.484C411.174 162.486 408.111 163.9 404.341 163.9C396.684 163.9 392.561 158.717 392.561 150.824C392.561 143.285 396.567 137.513 403.635 137.513C410.585 137.513 414.59 142.225 414.59 150.117C414.59 150.824 414.472 151.884 414.472 152.591ZM408.582 148.35C408.582 144.228 407.169 141.754 403.752 141.754C400.925 141.754 399.158 143.639 398.805 148.586H408.582V148.35Z" fill="black"/>
<path d="M434.734 130.563H453.228L452.521 135.157H440.977V144.934H450.99V149.528H440.977V163.075H434.734V130.563Z" fill="black"/>
<path d="M477.259 163.193H472.076L471.723 159.659C469.838 162.486 467.482 163.9 464.066 163.9C459.589 163.9 457.116 160.955 457.116 156.125V138.22H463.123V155.418C463.123 158.246 464.183 159.306 466.186 159.306C468.189 159.306 469.956 157.892 471.251 155.772V138.22H477.259V163.193Z" fill="black"/>
<path d="M500.23 162.015C498.463 163.193 496.225 163.9 493.987 163.9C489.039 163.782 486.448 161.073 486.448 155.654V142.578H482.56V138.22H486.448V132.683L492.455 131.976V138.22H498.345L497.639 142.578H492.455V155.536C492.455 158.01 493.28 158.952 495.165 158.952C496.107 158.952 497.05 158.717 498.11 158.128L500.23 162.015Z" fill="black"/>
<path d="M524.968 163.193H519.785L519.431 159.659C517.547 162.486 515.191 163.9 511.774 163.9C507.298 163.9 504.824 160.955 504.824 156.125V138.22H510.832V155.418C510.832 158.246 511.774 159.306 513.895 159.306C515.897 159.306 517.664 157.892 518.96 155.772V138.22H524.968V163.193Z" fill="black"/>
<path d="M548.41 137.866L547.35 143.756C546.643 143.521 546.054 143.403 545.23 143.403C542.167 143.403 540.635 145.641 539.693 149.882V163.075H533.685V138.22H538.868L539.457 143.05C540.635 139.516 542.991 137.513 545.936 137.513C546.879 137.513 547.585 137.631 548.41 137.866Z" fill="black"/>
<path fill-rule="evenodd" clip-rule="evenodd" d="M572.559 152.591H556.892C557.245 157.657 559.719 159.306 563.017 159.306C565.255 159.306 567.022 158.599 569.261 157.068L571.734 160.484C569.261 162.486 566.198 163.9 562.428 163.9C554.771 163.9 550.648 158.717 550.648 150.824C550.648 143.285 554.653 137.513 561.721 137.513C568.672 137.513 572.677 142.225 572.677 150.117C572.677 150.824 572.559 151.884 572.559 152.591ZM566.669 148.35C566.669 144.228 565.255 141.754 561.839 141.754C559.012 141.754 557.245 143.639 556.892 148.586H566.669V148.35Z" fill="black"/>
<path fill-rule="evenodd" clip-rule="evenodd" d="M614.496 150.706C614.496 158.481 610.137 163.782 602.833 163.782C595.412 163.782 591.053 158.835 591.053 150.589C591.053 142.814 595.412 137.513 602.833 137.513C610.255 137.513 614.496 142.461 614.496 150.589V150.706ZM597.415 150.706C597.415 156.714 599.299 159.424 602.833 159.424C606.367 159.424 608.134 156.714 608.134 150.706C608.134 144.817 606.367 142.225 602.833 142.225C599.299 142.225 597.415 144.817 597.415 150.706Z" fill="black"/>
<path d="M628.396 135.51V138.22H634.286L633.697 142.578H628.396V163.193H622.27V142.578H618.265V138.22H622.27V135.51C622.27 130.916 625.333 127.5 631.105 127.5C633.579 127.5 635.582 128.089 637.584 129.031L635.817 133.037C634.286 132.33 632.872 132.094 631.694 132.094C629.22 132.094 628.396 133.154 628.396 135.51Z" fill="black"/>
<path d="M672.924 133.861L669.861 137.395C667.505 135.51 665.149 134.568 662.558 134.568C659.613 134.568 657.492 135.982 657.492 138.455C657.492 140.811 658.788 141.872 664.207 143.521C669.861 145.405 673.866 147.761 673.866 153.887C673.866 159.659 669.272 163.782 661.497 163.782C656.314 163.782 652.427 162.015 649.717 159.306L652.898 155.772C655.372 157.774 657.963 159.07 661.38 159.07C664.796 159.07 667.27 157.303 667.27 154.123C667.27 151.413 665.974 150.235 660.908 148.704C654.076 146.583 651.013 143.756 651.013 138.809C651.013 133.39 655.725 129.856 662.086 129.856C666.916 129.856 670.097 131.27 672.924 133.861Z" fill="black"/>
<path d="M698.84 135.157H686.824V144.345H697.191V148.939H686.824V158.481H699.664V163.193H680.581V130.563H699.429L698.84 135.157Z" fill="black"/>
<path fill-rule="evenodd" clip-rule="evenodd" d="M733.002 146.819C733.002 157.539 727.583 163.782 718.866 163.782C710.149 163.782 704.494 157.774 704.494 146.937C704.494 136.217 710.149 129.856 718.866 129.856C727.583 129.856 733.002 135.982 733.002 146.819ZM711.091 146.937C711.091 155.654 714.036 159.07 718.866 159.07C723.695 159.07 726.523 155.654 726.523 146.819C726.523 138.102 723.695 134.686 718.866 134.686C713.918 134.568 711.091 138.102 711.091 146.937Z" fill="black"/>
</g>
<defs>
<clipPath id="clip0_2_3">
<rect width="1190" height="189" fill="white"/>
</clipPath>
</defs>
</svg>
