<svg width="1994" height="188" viewBox="0 0 1994 188" fill="none" xmlns="http://www.w3.org/2000/svg">
<g clip-path="url(#clip0_2_35)">
<path d="M48.3 73.9H48.1L29.6 71.8C29.3333 71.8 29.1 71.7 28.9 71.5C28.7 71.3 28.5 71.1 28.3 70.8C28.1667 70.5333 28.0667 70.2333 28 69.9C28 69.5667 28 69.2 28 68.8L30.1 54.9C30.1 54.6 30.3 54.2 30.4 53.8C30.6 53.3333 30.8333 52.9 31.1 52.5C31.3667 52.0333 31.6667 51.6 32 51.2C32.3333 50.7333 32.7 50.3333 33.1 50L47.1 36.9C47.5 36.5 47.9333 36.1667 48.4 35.9C48.8 35.5 49.3 35.3 49.7 35C50.2 34.8 50.6 34.5 51 34.4C51.4 34.2 51.8 34.1 52.1 34.1L71.8 32.3H72C72.2667 32.3 72.5333 32.3333 72.8 32.4C73.1333 32.4667 73.4333 32.6333 73.7 32.9C73.9 33.1 74.1 33.3 74.3 33.6C74.4333 33.9333 74.5 34.3 74.5 34.7L75 49.5C75 49.9 74.9333 50.3667 74.8 50.9C74.6 51.4333 74.3333 52 74 52.6C73.7 53.1 73.4 53.7 73 54.2C72.5333 54.7333 72.0667 55.2 71.6 55.6L53.9 71.3C53.4333 71.7 52.9333 72.0667 52.4 72.4C51.8667 72.7333 51.3333 73.0333 50.8 73.3C50.3 73.5 49.8 73.7 49.3 73.8C48.9667 73.8667 48.6333 73.9 48.3 73.9Z" fill="#3874FF"/>
<path d="M183.8 89.3C183.4 89.3 183 89.2667 182.6 89.2L132.5 83.5C131.7 83.4 131.1 83.2 130.4 82.9C129.733 82.5667 129.1 82.1667 128.5 81.7C128 81.2 127.5 80.7 127.1 80.1C126.767 79.5667 126.533 78.9667 126.4 78.3L121.7 56.4C121.5 55.9 121.6 55.3 121.7 54.6C121.833 53.9333 122.067 53.2667 122.4 52.6C122.7 51.9 123.1 51.2 123.6 50.6C124.133 49.9333 124.7 49.3333 125.3 48.8L149.4 28.6C150 28 150.8 27.5 151.7 27C152.5 26.5 153.4 26 154.3 25.6C155.2 25.2 156.1 24.9 156.9 24.6C157.767 24.3333 158.6 24.1667 159.4 24.1L209.4 19.4C209.8 19.4 210.2 19.4 210.6 19.4C211.2 19.4 211.8 19.4333 212.4 19.5C213.467 19.6333 214.467 19.8667 215.4 20.2C216.3 20.5 217.2 20.9 217.9 21.3C218.633 21.7667 219.2 22.3 219.6 22.9L236.6 47.4C237.067 48.1333 237.333 48.9667 237.4 49.9C237.5 50.8 237.4 51.8 237 52.8C236.7 53.7 236.2 54.7 235.5 55.6C234.9 56.5 234 57.4 233 58.1L196.6 85.1C195.7 85.8 194.6 86.4 193.4 87C192.3 87.5 191 88 189.7 88.3C188.433 88.7 187.167 88.9667 185.9 89.1C185.167 89.2333 184.467 89.3 183.8 89.3Z" fill="#3874FF"/>
<path d="M82.8 49.7C82.3334 49.7 81.9 49.6 81.5 49.4C81.1 49.3 80.8 49 80.5 48.8C80.2 48.5 80 48.2 79.8 47.8C79.6 47.4667 79.5 47.0667 79.5 46.6L78.7 31.7C78.7 31.3 78.8 30.8 78.9 30.4C79.0334 29.8667 79.2667 29.3667 79.6 28.9C79.8667 28.3667 80.2 27.8667 80.6 27.4C81 26.8667 81.4 26.4 81.8 26L99.4 10C99.9334 9.6 100.467 9.2 101 8.8C101.6 8.4 102.2 8.03334 102.8 7.7C103.4 7.36667 104 7.06667 104.6 6.8C105.2 6.6 105.733 6.43334 106.2 6.3L136.4 0.900003C136.8 0.833337 137.2 0.800003 137.6 0.800003H138.1C138.7 0.800003 139.2 0.900003 139.7 1.1C140.167 1.3 140.567 1.53334 140.9 1.8C141.3 2.13334 141.567 2.5 141.7 2.9L147.5 18.6C147.7 19.1 147.7 19.6 147.6 20.2C147.533 20.8 147.333 21.4333 147 22.1C146.7 22.7 146.3 23.4 145.8 24C145.267 24.6667 144.7 25.2667 144.1 25.8L120.6 45.7C120 46.2 119.3 46.7 118.6 47.2C117.867 47.6 117.1 48 116.3 48.4C115.5 48.7333 114.733 49 114 49.2C113.333 49.3333 112.7 49.4333 112.1 49.5L82.8 49.7Z" fill="#3874FF"/>
<path d="M182.3 98.6C183.3 99 184.3 99.6 185.2 100.3C186.1 100.9 186.9 101.7 187.6 102.5C188.4 103.3 188.9 104.2 189.2 105.1L204.6 143.1C205.1 144.3 205.3 145.5 205.3 146.8C205.3 148 205.1 149.3 204.6 150.6C204.2 151.867 203.6 153.033 202.8 154.1C202.1 155.2 201.1 156.1 200 156.8L160.4 183.2C159.4 183.8 158.2 184.4 157 184.8C155.8 185.2 154.4 185.4 153.1 185.6C151.8 185.7 150.4 185.7 149.2 185.5C148 185.3 146.8 185 145.8 184.6L96.9 162.1C96.2 161.8 95.5 161.3 94.9 160.7C94.3 160.1 93.7334 159.4 93.2 158.6C92.7334 157.8 92.3667 156.967 92.1 156.1C91.7667 155.167 91.5667 154.267 91.5 153.4L89.4 123C89.4 122.3 89.4 121.5 89.6 120.7C89.8 119.9 90.1 119.1 90.5 118.3C90.9 117.5 91.4 116.7 91.9 116C92.5 115.3 93.1 114.6 93.7 114.1L119.1 93.9C119.8 93.4 120.6 92.9 121.5 92.4C122.3 92 123.167 91.6333 124.1 91.3C125.033 91.0333 125.933 90.8333 126.8 90.7C127.7 90.6 128.5 90.6 129.2 90.7L179.3 97.7C180.3 97.9 181.3 98.2 182.3 98.6Z" fill="#3874FF"/>
<path d="M47 187.1C46.6 187.1 46.2 187.067 45.8 187C45.1 186.9 44.5 186.7 44 186.3L19.2 168.5C18.8667 168.233 18.5667 167.867 18.3 167.4C18.0333 166.867 17.8 166.3 17.6 165.7C17.4 165 17.3 164.3 17.3 163.6C17.2333 162.933 17.2667 162.233 17.4 161.5L20.8 136.5C20.9333 135.9 21.1 135.267 21.3 134.6C21.6 133.9 21.9 133.2 22.3 132.6C22.6333 131.933 23.0333 131.3 23.5 130.7C24 130.1 24.4 129.6 24.9 129.2L43.6 113.4C44.1333 112.933 44.7 112.533 45.3 112.2C45.9 111.9 46.5 111.7 47.1 111.5C47.7 111.3 48.2 111.1 48.8 111.1L49.4 111C49.6667 111 49.9333 111.033 50.2 111.1L77.5 119.5C78.0333 119.7 78.5333 119.967 79 120.3C79.4667 120.7 79.9 121.2 80.3 121.8C80.7 122.4 81 123.033 81.2 123.7C81.4667 124.367 81.6 125.067 81.6 125.8L82.9 155.8C83 156.7 82.9 157.6 82.7 158.6C82.4333 159.533 82.1 160.467 81.7 161.4C81.2 162.4 80.7 163.3 80.1 164C79.5 164.8 78.8 165.5 78.1 166L52.3 185.4C51.6333 185.867 50.9333 186.233 50.2 186.5C49.5 186.8 48.7 187 47.9 187.1C47.6333 187.1 47.3333 187.1 47 187.1Z" fill="#3874FF"/>
<path d="M19.3 126.3C18.9 126.3 18.6 126.267 18.4 126.2L1.90001 118.6C1.63334 118.467 1.40001 118.267 1.20001 118C1.06667 117.667 0.93334 117.333 0.800006 117C0.73334 116.6 0.666673 116.167 0.600006 115.7C0.600006 115.233 0.666673 114.767 0.800006 114.3L4.40001 97.2C4.53334 96.7333 4.70001 96.2667 4.90001 95.8C5.10001 95.3 5.40001 94.8 5.70001 94.3C6.03334 93.7667 6.36667 93.2667 6.70001 92.8C7.00001 92.4 7.40001 92 7.80001 91.6L22.2 78.5C22.6 78.1667 23.0333 77.8333 23.5 77.5C23.9 77.2333 24.3333 77 24.8 76.8C25.2 76.6 25.6 76.4334 26 76.3C26.2667 76.2334 26.5333 76.2 26.8 76.2H27L45.3 78.8C45.6 78.9 46 79 46.2 79.2C46.5333 79.4 46.8 79.6667 47 80C47.2 80.4 47.4 80.8 47.5 81.2C47.5667 81.6 47.6 82.0667 47.6 82.6L46.2 101.7C46.2 102.233 46.0667 102.833 45.8 103.5C45.6 104.1 45.3333 104.733 45 105.4C44.6 106.067 44.2 106.667 43.8 107.2C43.3333 107.8 42.8667 108.3 42.4 108.7L24.1 124.3C23.6 124.7 23.1 125.1 22.6 125.4C22.0667 125.667 21.5333 125.9 21 126.1C20.4667 126.3 19.9667 126.367 19.5 126.3H19.3Z" fill="#3874FF"/>
<path fill-rule="evenodd" clip-rule="evenodd" d="M1991.38 154.508H1926.64C1925.04 154.508 1923.85 153.711 1923.85 152.118V64.2704C1923.85 62.876 1925.04 61.88 1926.64 61.88H1991.18C1992.77 61.88 1993.97 62.876 1993.97 64.2704V77.4176C1993.97 78.812 1992.77 79.808 1991.18 79.808H1948.75V98.1344H1989.38C1990.98 98.1344 1991.97 99.1304 1991.97 100.525V113.672C1991.97 115.066 1990.98 116.062 1989.38 116.062H1948.75V136.779H1991.38C1992.77 136.779 1993.97 137.775 1993.97 139.17V152.118C1993.97 153.711 1992.77 154.508 1991.38 154.508ZM1907.11 77.2184C1907.11 78.812 1906.12 79.6088 1904.52 79.6088H1876.44V152.118C1876.44 153.711 1875.24 154.508 1873.85 154.508H1854.53C1853.13 154.508 1851.74 153.711 1851.74 152.118V79.6088H1823.85C1822.06 79.6088 1821.06 78.812 1821.06 77.2184V64.0712C1821.06 62.876 1822.06 61.88 1823.85 61.88H1904.52C1905.92 61.88 1907.11 62.876 1907.11 64.0712V77.2184ZM1801.54 154.508H1782.22C1780.82 154.508 1779.43 153.711 1779.43 152.118V65.6648C1779.43 64.2704 1780.62 63.6728 1781.82 63.4736L1801.74 60.2864H1802.14C1803.53 60.2864 1804.33 61.2824 1804.33 62.4776V152.118C1804.33 153.711 1803.13 154.508 1801.54 154.508ZM1710.7 156.301C1683.41 156.301 1667.88 146.54 1667.88 121.441V65.6648C1667.88 64.2704 1668.87 63.6728 1670.27 63.4736L1690.19 60.2864H1690.58C1691.78 60.2864 1692.58 61.2824 1692.58 62.4776V122.835C1692.58 133.194 1695.96 139.17 1710.7 139.17C1724.25 139.17 1728.63 133.99 1728.63 123.433V65.6648C1728.63 64.2704 1729.63 63.6728 1731.02 63.4736L1750.94 60.2864H1751.34C1752.54 60.2864 1753.33 61.2824 1753.33 62.4776V121.242C1753.33 145.345 1739.19 156.301 1710.7 156.301ZM1598.35 156.5C1576.24 156.5 1558.71 151.321 1555.92 150.325C1554.13 149.727 1553.14 148.134 1553.14 146.739V145.942L1555.33 133.791C1555.73 131.799 1556.92 131.202 1558.12 131.202C1558.71 131.202 1559.11 131.401 1559.71 131.401C1563.3 132.198 1580.03 136.978 1594.77 136.978C1607.72 136.978 1618.27 133.592 1618.27 121.042C1618.27 108.094 1606.72 107.098 1591.78 104.708C1574.65 102.118 1551.94 97.1384 1551.94 68.852C1551.94 39.7688 1572.86 32 1598.95 32C1618.08 32 1634.21 36.3824 1638 37.5776C1639.99 37.976 1641.18 39.3704 1641.18 41.1632V41.96L1638.79 54.1112C1638.59 55.3064 1637.6 56.5016 1636 56.5016L1635.6 56.3024C1626.04 54.3104 1614.89 51.5216 1601.74 51.5216C1590.19 51.5216 1579.03 53.5136 1579.03 66.0632C1579.03 78.6128 1591.78 80.0072 1605.72 82.1984C1624.65 85.1864 1645.96 88.5728 1645.96 119.25C1645.96 147.735 1623.06 156.301 1598.35 156.5ZM1478.24 154.508H1413.5C1412.1 154.508 1410.71 153.711 1410.71 152.118V64.2704C1410.71 62.876 1412.1 61.88 1413.5 61.88H1478.04C1479.83 61.88 1480.83 62.876 1480.83 64.2704V77.4176C1480.83 78.812 1479.83 79.808 1478.04 79.808H1435.61V98.1344H1476.24C1477.84 98.1344 1478.83 99.1304 1478.83 100.525V113.672C1478.83 115.066 1477.84 116.062 1476.24 116.062H1435.61V136.779H1478.24C1479.63 136.779 1480.83 137.775 1480.83 139.17V152.118C1480.83 153.711 1479.63 154.508 1478.24 154.508ZM1389.19 147.934C1389.19 148.93 1388.8 149.926 1386.6 150.723C1377.64 153.512 1366.88 155.305 1355.13 155.305C1321.47 155.305 1309.32 140.962 1309.32 107.895C1309.32 75.0272 1321.47 60.6848 1355.13 60.6848C1366.88 60.6848 1377.64 62.4776 1386.6 65.2664C1388.8 66.0632 1389.19 67.0592 1389.19 68.2544V69.2504L1386.8 80.4056C1386.6 81.6008 1385.61 82.1984 1384.41 82.1984C1383.82 82.1984 1383.62 82.1984 1383.02 81.9992C1376.25 80.4056 1368.88 78.4136 1359.12 78.4136C1339 78.4136 1334.41 86.3816 1334.41 108.094C1334.41 129.409 1339 137.775 1359.12 137.775C1368.88 137.775 1376.25 135.584 1383.02 133.99C1383.62 133.791 1383.82 133.791 1384.41 133.791C1385.61 133.791 1386.6 134.588 1386.8 135.584L1389.19 146.739C1389.19 147.138 1389.19 147.337 1389.19 147.934ZM1282.62 154.508H1247.16C1245.37 154.508 1243.58 153.114 1243.18 151.52L1217.88 80.2064H1212.7L1214.5 152.118V152.317C1214.5 153.512 1213.5 154.508 1211.91 154.508H1192.78C1191.19 154.508 1189.99 153.512 1189.99 152.118L1190.39 64.2704C1190.39 62.876 1191.39 61.88 1192.98 61.88H1230.83C1232.42 61.88 1234.42 62.6768 1235.21 64.6688L1260.91 140.564H1263.3L1261.91 64.2704V64.0712C1261.91 62.876 1263.1 61.88 1264.5 61.88H1283.42C1285.01 61.88 1286.21 62.876 1286.21 64.2704V151.321C1286.21 153.313 1284.42 154.508 1282.62 154.508ZM1172.27 152.914C1172.27 153.711 1171.47 154.707 1170.27 154.707H1148.96C1147.96 154.707 1146.57 153.512 1146.17 152.317L1137.21 123.234H1104.74L1095.57 152.715C1095.18 153.711 1094.18 154.508 1092.98 154.508H1072.47C1071.07 154.508 1070.08 153.711 1070.08 152.715V152.118L1100.75 63.2744C1100.95 62.4776 1101.95 61.88 1102.94 61.88H1139.6C1140.39 61.88 1141.39 62.4776 1141.79 63.2744L1172.07 152.118L1172.27 152.914ZM1123.66 78.6128H1118.48L1109.72 106.501H1132.43L1123.66 78.6128ZM1055.53 151.918C1055.53 153.711 1054.14 154.508 1052.55 154.508H1033.82C1032.23 154.508 1030.83 153.512 1030.63 151.719L1027.05 78.812H1021.67L1007.33 135.783C1006.93 137.178 1005.93 138.572 1003.94 138.572H981.432C979.639 138.572 978.643 137.178 978.046 135.783L963.902 78.812H958.524L954.739 151.719C954.739 153.512 953.345 154.508 951.751 154.508H934.022C932.429 154.508 931.034 153.512 931.034 151.918L938.006 64.6688C938.206 63.0752 939.6 61.88 941.194 61.88H978.643C980.436 61.88 981.631 63.2744 982.03 64.6688L993.384 113.672H994.778L1005.14 64.6688C1005.54 63.2744 1006.93 61.88 1008.72 61.88H1044.18C1045.97 61.88 1047.17 63.0752 1047.37 64.6688L1055.53 151.918ZM905.338 154.508H885.019C883.625 154.508 882.629 153.711 882.43 152.516L881.234 129.807C880.836 121.64 872.27 120.445 863.904 120.046L848.566 119.847V152.118C848.566 153.512 847.171 154.508 845.777 154.508H826.454C824.861 154.508 823.666 153.512 823.666 152.118V64.2704C823.666 62.876 824.861 61.88 826.454 61.88H872.071C892.39 61.88 906.134 68.0552 906.134 88.3736C906.134 101.521 900.756 108.294 884.222 110.086V113.672C898.963 114.469 906.134 117.855 906.931 135.186L907.728 152.118C907.728 153.114 906.334 154.508 905.338 154.508ZM867.29 78.812H848.566V104.708L865.099 103.911C875.458 103.513 880.637 100.923 880.637 91.5608C880.637 82.5968 877.649 78.812 867.29 78.812ZM753.348 156.301C714.504 156.301 705.938 136.978 705.938 108.094C705.938 79.6088 714.504 60.2864 753.348 60.2864C792.192 60.2864 800.558 79.6088 800.558 108.094C800.558 136.978 792.192 156.301 753.348 156.301ZM753.348 77.0192C733.826 77.0192 731.237 86.1824 731.237 108.094C731.237 130.206 733.826 139.17 753.149 139.17C772.87 139.17 775.26 130.206 775.26 108.094C775.26 86.1824 772.87 77.0192 753.348 77.0192ZM687.214 79.808H647.772V103.513H683.23C684.624 103.513 685.819 104.509 685.819 105.903V119.05C685.819 120.445 684.624 121.441 683.23 121.441H647.772V152.118C647.772 153.711 646.378 154.707 644.983 154.707H625.661C624.266 154.707 622.872 153.711 622.872 152.118V64.2704C622.872 62.876 624.266 61.88 625.661 61.88H687.214C688.807 61.88 690.002 62.876 690.002 64.2704V77.4176C690.002 78.812 688.807 79.808 687.214 79.808ZM596.179 154.508H575.861C574.267 154.508 573.271 153.711 573.271 152.516L572.076 129.807C571.678 121.64 563.112 120.445 554.746 120.046L539.407 119.847V152.118C539.407 153.512 538.013 154.508 536.618 154.508H517.296C515.503 154.508 514.507 153.512 514.507 152.118V64.2704C514.507 62.876 515.702 61.88 517.296 61.88H562.913C583.231 61.88 596.777 68.0552 596.777 88.3736C596.777 101.521 591.398 108.294 575.064 110.086V113.672C589.606 114.469 596.976 117.855 597.773 135.186L598.57 152.118C598.57 153.114 597.175 154.508 596.179 154.508ZM558.132 78.812H539.407V104.708L555.742 103.911C566.299 103.513 571.279 100.923 571.279 91.5608C571.279 82.5968 568.49 78.812 558.132 78.812ZM487.814 154.707H423.074C421.68 154.707 420.286 153.711 420.286 152.118V64.2704C420.286 62.876 421.68 61.88 423.074 61.88H487.615C489.209 61.88 490.404 62.876 490.404 64.2704V77.4176C490.404 78.812 489.209 79.808 487.615 79.808H445.186V98.1344H485.822C487.416 98.1344 488.412 99.1304 488.412 100.525V113.672C488.412 115.066 487.416 116.062 485.822 116.062H445.186V136.779H487.814C489.209 136.779 490.404 137.775 490.404 139.17V152.118C490.404 153.711 489.209 154.508 487.814 154.707ZM393.194 99.1304C385.824 106.899 373.075 108.891 359.33 108.891H358.135H329.45V152.118C329.45 153.711 328.454 154.508 326.861 154.508H305.148C303.754 154.508 302.558 153.711 302.558 152.118V36.3824C302.558 34.988 303.953 33.7928 305.347 33.7928H363.514C376.86 33.7928 387.019 36.3824 393.593 43.1552C399.569 49.1312 402.358 58.2944 402.358 70.844C402.358 82.5968 399.768 92.3576 393.194 99.1304ZM369.888 56.7008C365.904 52.916 359.131 52.3184 350.366 52.3184H329.45V91.76L349.769 91.1624C359.53 90.764 366.103 89.9672 370.087 86.1824C373.075 83.3936 374.27 78.6128 374.27 71.0432C374.27 63.872 372.876 59.2904 369.888 56.7008Z" fill="black"/>
</g>
<defs>
<clipPath id="clip0_2_35">
<rect width="1994" height="188" fill="white"/>
</clipPath>
</defs>
</svg>
